<?xml version="1.0" encoding="UTF-8"?>
<svg width="474px" height="214px" viewBox="0 0 474 214" version="1.1" xmlns="http://www.w3.org/2000/svg" xmlns:xlink="http://www.w3.org/1999/xlink">
    <!-- Generator: Sketch 47.1 (45422) - http://www.bohemiancoding.com/sketch -->
    <title>Shape</title>
    <desc>Created with Sketch.</desc>
    <defs></defs>
    <g id="Page-1" stroke="none" stroke-width="1" fill="none" fill-rule="evenodd">
        <path d="M469.444,98 L374.944,3.6 C370.144,-1.2 362.444,-1.2 357.644,3.6 C352.844,8.4 352.844,16.1 357.644,20.9 L431.244,94.5 L12.444,94.5 C5.644,94.5 0.144,100 0.144,106.8 C0.144,113.6 5.644,119.1 12.444,119.1 L431.244,119.1 L357.644,192.5 C352.844,197.3 352.844,205 357.644,209.8 C360.044,212.2 363.144,213.4 366.344,213.4 C369.544,213.4 372.644,212.2 375.044,209.8 L469.544,115.3 C474.244,110.6 474.244,102.8 469.444,98 Z" id="Shape" fill="#FFFFFF" fill-rule="nonzero"></path>
    </g>
</svg>